<?xml version="1.0" encoding="UTF-8" standalone="no"?>
<!-- Uploaded to: SVG Repo, www.svgrepo.com, Generator: SVG Repo Mixer Tools -->

<svg
   fill="#000000"
   version="1.1"
   id="Layer_1"
   width="125px"
   height="125px"
   viewBox="0 0 70 70"
   enable-background="new 0 0 70 70"
   xml:space="preserve"
   sodipodi:docname="cc-svgrepo-com.svg"
   inkscape:version="1.3.2 (091e20e, 2023-11-25, custom)"
   xmlns:inkscape="http://www.inkscape.org/namespaces/inkscape"
   xmlns:sodipodi="http://sodipodi.sourceforge.net/DTD/sodipodi-0.dtd"
   xmlns="http://www.w3.org/2000/svg"
   xmlns:svg="http://www.w3.org/2000/svg"><defs
   id="defs9"><rect
     x="236.00465"
     y="344.71545"
     width="229.227"
     height="115.36238"
     id="rect9" /></defs><sodipodi:namedview
   id="namedview9"
   pagecolor="#ffffff"
   bordercolor="#000000"
   borderopacity="0.25"
   inkscape:showpageshadow="2"
   inkscape:pageopacity="0.0"
   inkscape:pagecheckerboard="0"
   inkscape:deskcolor="#d1d1d1"
   inkscape:zoom="1.07625"
   inkscape:cx="400"
   inkscape:cy="400"
   inkscape:window-width="1920"
   inkscape:window-height="1057"
   inkscape:window-x="-8"
   inkscape:window-y="-8"
   inkscape:window-maximized="1"
   inkscape:current-layer="g9" />
<g
   id="g9">
	<g
   id="g1">
		<path
   d="M62.583,23.583v24h-56v-24H62.583 M63.344,19.583h-56c-2.209,0-4.761,2.467-4.761,4.676v24    c0,2.209,2.552,3.324,4.761,3.324h56c2.209,0,3.239-1.115,3.239-3.324v-24c0-2.209-1.238-4.676-3.447-4.676H63.344z"
   id="path1" />
	</g>
	<g
   id="g2">
		<path
   d="M56.583,17.417c-1.104,0-2-0.896-2-2v-4.834h-42v4.834c0,1.104-0.896,2-2,2s-2-0.896-2-2V8.638    c0-1.104,0.625-2.055,1.729-2.055h47.104c1.104,0,1.166,1.729,1.166,2.834v6C58.583,16.521,57.688,17.417,56.583,17.417z"
   id="path2" />
	</g>
	<g
   id="g3">
		<path
   d="M57.417,62.583h-46c-1.104,0-2.834-0.062-2.834-1.166v-6c0-1.104,0.896-2,2-2s2,0.896,2,2v3.166h42v-3.166    c0-1.104,0.896-2,2-2s2,0.896,2,2v6C58.583,62.521,58.521,62.583,57.417,62.583z"
   id="path3" />
	</g>
	<g
   id="g4">
		<path
   d="M8.583,37.417c-0.552,0-1-0.447-1-1v-10c0-0.553,1.282-1.834,1.834-1.834h8c0.552,0,1,0.447,1,1s-0.448,1-1,1H9.583v9.834    C9.583,36.97,9.135,37.417,8.583,37.417z"
   id="path4" />
	</g>
	<g
   id="g5">
		<path
   d="M58.417,44.583h-3c-0.552,0-1-0.447-1-1s0.448-1,1-1h2.166v-3.166c0-0.553,0.448-1,1-1s1,0.447,1,1v4    C59.583,43.97,59.583,44.583,58.417,44.583z"
   id="path5" />
	</g>
	<g
   id="g6">
		<path
   d="M8.583,43.417c-0.552,0-1-0.447-1-1v-2c0-0.553,0.448-1,1-1s1,0.447,1,1v2C9.583,42.97,9.135,43.417,8.583,43.417z"
   id="path6" />
	</g>
	<g
   id="g8">
		
		
	<text
   xml:space="preserve"
   style="font-style:normal;font-variant:normal;font-weight:normal;font-stretch:normal;font-size:7.875px;font-family:'MS Gothic';-inkscape-font-specification:'MS Gothic';white-space:pre;inline-size:48.3242;fill:#000000;fill-opacity:1;stroke-width:0.0875"
   x="9.5121956"
   y="34.308945"
   id="text9"
   transform="matrix(1.0191516,0,0,0.95512016,-0.18687779,0.27148595)"
   inkscape:label="moneyAmount"><tspan
     x="9.5121956"
     y="34.308945"
     id="tspan1">$0</tspan></text></g>
</g>
</svg>
