<?xml version="1.0" encoding="UTF-8" standalone="no"?>
<!-- Uploaded to: SVG Repo, www.svgrepo.com, Generator: SVG Repo Mixer Tools -->

<svg
   width="125px"
   height="125px"
   viewBox="0 0 24 24"
   fill="none"
   version="1.1"
   id="svg1"
   sodipodi:docname="Plus.svg"
   inkscape:version="1.3.2 (091e20e, 2023-11-25, custom)"
   xmlns:inkscape="http://www.inkscape.org/namespaces/inkscape"
   xmlns:sodipodi="http://sodipodi.sourceforge.net/DTD/sodipodi-0.dtd"
   xmlns="http://www.w3.org/2000/svg"
   xmlns:svg="http://www.w3.org/2000/svg">
  <defs
     id="defs1" />
  <sodipodi:namedview
     id="namedview1"
     pagecolor="#ffffff"
     bordercolor="#000000"
     borderopacity="0.25"
     inkscape:showpageshadow="2"
     inkscape:pageopacity="0.0"
     inkscape:pagecheckerboard="0"
     inkscape:deskcolor="#d1d1d1"
     inkscape:zoom="6.0881894"
     inkscape:cx="29.811819"
     inkscape:cy="46.401316"
     inkscape:window-width="1920"
     inkscape:window-height="1057"
     inkscape:window-x="1912"
     inkscape:window-y="-1"
     inkscape:window-maximized="1"
     inkscape:current-layer="svg1" />
  <path
     d="m 6.8028971,7.5559236 h -2 c -1.10457,0 -2,0.8954 -2,2 0,1.1046004 0.89543,2.0000004 2,2.0000004 h 5 v 5 c 0,1.1046 0.8953999,2 1.9999999,2 1.1046,0 2,-0.8954 2,-2 v -5 h 5 c 1.1046,0 2,-0.8954 2,-2.0000004 0,-1.1046 -0.8954,-2 -2,-2 h -5 v -5 c 0,-1.10457 -0.8954,-2 -2,-2 -1.1046,0 -1.9999999,0.89543 -1.9999999,2 v 5"
     stroke="#000000"
     stroke-linecap="round"
     stroke-linejoin="round"
     id="Plus" />
  <text
     xml:space="preserve"
     style="font-size:4.8px;font-family:'MS Gothic';-inkscape-font-specification:'MS Gothic';fill:#000000;stroke-width:0.24"
     x="7.9235377"
     y="23.888876"
     id="text1"><tspan
       sodipodi:role="line"
       id="tspan1"
       style="font-size:4.8px;stroke-width:0.24"
       x="6.7"
       y="23.888876"><tspan
   style="font-size:5.28px"
   id="tspan2">Year</tspan> </tspan></text>
</svg>
